<?xml version="1.0" encoding="utf-8"?>
<!-- Generator: Adobe Illustrator 20.1.0, SVG Export Plug-In . SVG Version: 6.00 Build 0)  -->
<svg version="1.1" id="Layer_1" xmlns="http://www.w3.org/2000/svg" xmlns:xlink="http://www.w3.org/1999/xlink" x="0px" y="0px"
	 viewBox="0 0 334.5 77" style="enable-background:new 0 0 334.5 77;" xml:space="preserve">
<style type="text/css">
	.st0{fill:#FFFFFF;stroke:#FFFFFF;stroke-width:2.2039;stroke-miterlimit:10;}
	.st1{fill:#FFFFFF;stroke:#FFFFFF;stroke-width:1.102;stroke-miterlimit:10;}
	.st2{fill:#FFFFFF;stroke:#FFFFFF;stroke-width:0.7346;stroke-miterlimit:10;}
</style>
<g>
	<path class="st0" d="M13.8,11.1h18.1v1.8H15.7v9.8H29v1.8H15.7v11.8h16.8V38H13.8V11.1z"/>
	<path class="st0" d="M53.4,25.6L42.9,11.1h2.3l9.1,12.6l9.2-12.6h2.2L55.3,25.5V38h-1.9V25.6z"/>
	<path class="st0" d="M78.6,11.1h18.1v1.8H80.5v9.8h13.3v1.8H80.5v11.8h16.8V38H78.6V11.1z"/>
	<path class="st0" d="M128.7,11.1h8.4c8.6,0,14.5,5.5,14.5,13.5c0,8-5.9,13.5-14.5,13.5h-8.4V11.1z M136.8,36.2
		c8,0,12.8-4.7,12.8-11.7c0-7-4.8-11.7-12.8-11.7h-6.2v23.4H136.8z"/>
	<path class="st0" d="M166.2,11.1h18.1v1.8h-16.1v9.8h13.3v1.8h-13.3v11.8h16.8V38h-18.7V11.1z"/>
	<path class="st0" d="M196.2,35.6v-2.2c1.8,1.5,5.5,3.3,9.7,3.3c4.5,0,7.9-2.2,7.9-5.7c0-4-3.7-4.9-8-6.1c-5-1.4-8.8-2.7-8.8-7.5
		c0-3.6,3-6.7,9-6.7c3.2,0,6,0.9,8.2,2.3v2c-2.2-1.5-4.9-2.5-8.1-2.5c-5,0-7.1,2.3-7.1,4.9c0,3.5,3.5,4.5,7.9,5.7
		c4.3,1.2,8.9,2.7,8.9,7.8c0,5-4.6,7.5-9.7,7.5C201.8,38.5,198.1,37.1,196.2,35.6z"/>
	<path class="st0" d="M230.3,11.1h1.9V38h-1.9V11.1z"/>
	<path class="st0" d="M247,24.6c0-8.1,5.9-13.9,13.5-13.9c3.3,0,6.4,1,8.8,2.8v2c-2.5-2-5.6-3-8.6-3c-6.6,0-11.7,5-11.7,12.1
		c0,7,5.2,12.1,11.6,12.1c3.3,0,6.4-1,8.4-3.2V22.6h1.9v11.6c-2.3,2.5-5.8,4.2-10.3,4.2C252.9,38.5,247,32.7,247,24.6z"/>
	<path class="st0" d="M285.9,11.1h1.7l18.1,23.6V11.1h1.9V38H306l-18.2-23.6V38h-1.9V11.1z"/>
</g>
<g>
	<path class="st1" d="M54,63.6h0.8l8.1,10.6V63.6h0.9v12.1H63l-8.1-10.6v10.6H54V63.6z"/>
	<path class="st1" d="M84.6,63.6h8.1v0.8h-7.2v4.4h6v0.8h-6v5.3h7.5v0.8h-8.4V63.6z"/>
	<path class="st1" d="M111.7,63.6h1l3.7,10.7l3.2-10.7h0.7l3.3,10.7l3.6-10.7h0.9L124,75.7h-0.8L120,65.1l-3.3,10.6h-0.7L111.7,63.6
		z"/>
	<path class="st1" d="M173.2,70.1l-4.7-6.5h1l4.1,5.7l4.1-5.7h1L174,70v5.6h-0.9V70.1z"/>
	<path class="st1" d="M197,69.6c0-3.6,2.6-6.2,6-6.2c3.4,0,6,2.7,6,6.2c0,3.6-2.6,6.2-6,6.2C199.6,75.9,197,73.2,197,69.6z
		 M208.1,69.6c0-3.1-2.3-5.4-5.1-5.4s-5.1,2.3-5.1,5.4c0,3.1,2.3,5.4,5.1,5.4S208.1,72.7,208.1,69.6z"/>
	<path class="st1" d="M229.3,63.6h5.4c2.4,0,3.7,1.3,3.7,3.2c0,1.7-1.1,2.9-3,3.2l3.9,5.7h-1l-3.9-5.6h-4.2v5.6h-0.9V63.6z
		 M234.6,69.2c1.8,0,2.9-0.9,2.9-2.4c0-1.5-1.1-2.4-2.9-2.4h-4.4v4.8H234.6z"/>
	<path class="st1" d="M259.2,63.6h0.9v5.3l6.1-5.3h1.2l-6.3,5.5l7.3,6.5H267l-6.9-6.3v6.3h-0.9V63.6z"/>
</g>
<g>
	<path class="st2" d="M320.7,8c0-3.5,2.8-6.3,6.3-6.3c3.5,0,6.3,2.8,6.3,6.3c0,3.5-2.8,6.3-6.3,6.3S320.7,11.5,320.7,8z M332.9,8
		c0-3.3-2.6-5.9-5.9-5.9c-3.3,0-5.9,2.6-5.9,5.9c0,3.3,2.6,5.9,5.9,5.9C330.3,13.9,332.9,11.3,332.9,8z M324.7,4.7h3
		c1.3,0,2.1,0.8,2.1,1.8c0,0.9-0.5,1.5-1.5,1.7l2.1,3h-0.9l-2-2.9h-1.9v2.9h-0.8V4.7z M327.6,7.6c0.8,0,1.3-0.4,1.3-1.1
		c0-0.7-0.5-1.2-1.3-1.2h-2.2v2.3H327.6z"/>
</g>
</svg>
