<svg xmlns="http://www.w3.org/2000/svg" viewBox="0 0 20.04 27.54"><defs><style>.cls-1{fill:#fff;}</style></defs><title>Asset 3</title><g id="Layer_2" data-name="Layer 2"><g id="Layer_1-2" data-name="Layer 1"><path class="cls-1" d="M18.46,8.44A9.52,9.52,0,0,1,20,13.77a9.65,9.65,0,0,1-3,7.06,9.65,9.65,0,0,1-7.06,3v3.75l-5-5,5-5v3.75a7.2,7.2,0,0,0,5.3-2.2,7.2,7.2,0,0,0,2.2-5.3,7.8,7.8,0,0,0-.88-3.52ZM10,6.27a7.2,7.2,0,0,0-5.3,2.2,7.2,7.2,0,0,0-2.2,5.3,7.1,7.1,0,0,0,.88,3.52L1.58,19.1A9.52,9.52,0,0,1,0,13.77,9.65,9.65,0,0,1,3,6.71a9.65,9.65,0,0,1,7.06-3V0l5,5-5,5Z"/></g></g></svg>